<svg xmlns="http://www.w3.org/2000/svg" width="759.332" height="421.683" viewBox="0 0 759.332 421.683"><g transform="translate(0 0.091)"><path d="M422.633,119.016H720.711V85.28h-306a168.372,168.372,0,0,1,7.923,33.736" transform="translate(38.621 -17.103)" fill="#c01327"></path><path d="M416.46,135.206h298.7V101.47H419.087a302.855,302.855,0,0,1-2.5,33.736" transform="translate(44.169 34.221)" fill="#c01327"></path><path d="M402.11,69.1a125.982,125.982,0,0,1,27.231,23.353,130.576,130.576,0,0,1,8.09,10.384H760.655V69.1Z" transform="translate(-1.322 -68.395)" fill="#c01327"></path><path d="M594.7,306.983l-34.32,59.382L465.214,236.092l29.524-40.909v1c.292,52.168,42.577,103.335,100.082,110.716M621.926,69.2h-130.4l-99,136.529V69.2H306.208L306,404.438h86.321V277.292l92.451,127.146H630.308l17.306-30.817q9.758-17.723,20.85-34.487c.959-15.763,4.5-28.357.876-34.32-2.752-4.5-8.34-22.644-11.51-26.814s-18.015-28.023-26.772-40.075c-1.418-1.918-3.5-5.254-5.546-8.59l-1.835-2.21a61.22,61.22,0,0,1-12.51-13.511c-2.168-.625-4.671-.959-7.965-1.543a5.342,5.342,0,0,1-1.334-.375,26.856,26.856,0,0,1-16.68-12.01,150.864,150.864,0,0,0-16.1-19.558,14.512,14.512,0,0,1-4.545-9.007c-5.755-5-2.043-9.758-1.918-14.429a17.1,17.1,0,0,1,5.254-11.927c.625-.751,2.46-1.543,1.793-2.377-2-2.544.792-5.129,1.251-8.007.876-5.421,4.17-4.629,6.755-4.17l6.714,1.418c7.256-1.668,12.135.917,17.765,2.043s8.549,3.169,14.095,4.17a24.478,24.478,0,0,0,12.3-2.043,17.848,17.848,0,0,1,14.22-10.133,59.131,59.131,0,0,1,24.145,1.543c5.046-1.751,17.973,1.668,23.353,8.34a60.127,60.127,0,0,1,10.634,3.628,20.85,20.85,0,0,1,7.172,4.17A125.53,125.53,0,0,1,721.258,156.4a13.386,13.386,0,0,1,2.669,8.632,45.315,45.315,0,0,0,0,10.092,39.907,39.907,0,0,0,9.216,15.1c2.961,2.919,5.755,6,8.549,9.091v-8.34c0-66.346-54.545-122.559-120.1-122.059" transform="translate(-306 -69)" fill="#245477"></path><path d="M149.811,46.67l-6.63,21.267h-20.6l16.68,12.677L132.5,102.3l17.264-13.136,17.222,13.094-6.672-21.643L177,67.937H156.4Z" transform="translate(388.59 148.236)" fill="#d6a85b"></path><path d="M181.031,44.03l-9.216,29.691L143,73.679l23.311,17.765-9.424,30.275,24.1-18.348,24.1,18.307L195.71,91.4l23.353-17.681-28.815-.042Z" transform="translate(453.323 139.867)" fill="#d6a85b"></path><path d="M195.872,46.67l-6.63,21.267H168.6l16.68,12.677L178.567,102.3l17.264-13.136,17.222,13.094-6.672-21.643,16.68-12.677h-20.6Z" transform="translate(534.478 148.236)" fill="#d6a85b"></path><path d="M359.7,183.829,346.61,156.1c0-.417-.542-.417-.709,0l-12.51,27.731-10.884-26.647H306.16l24.354,57.506c.25.584.75.584,1.042,0L345.9,184.162l14.554,30.525c.334.667.792.667,1.043,0l24.02-57.506H369.962Z" transform="translate(-305.493 206.404)" fill="#245477"></path><path d="M357.5,196.162l5.254-12.052,5.3,12.052Zm6.422-39.95c-.25-.584-.751-.584-1,0L334.61,214.052h15.221l2.919-6.839h20.267l3.086,6.839h16.055Z" transform="translate(-215.303 206.373)" fill="#245477"></path><path d="M383.369,183.654h-7.214V169.1h7.214c5.3,0,8.132,2.585,8.132,7.256s-2.836,7.3-8.132,7.3m13.177,9.258a17.181,17.181,0,0,0,10.592-16.68c0-11.593-8.34-20.142-23.019-20.142H360.6v56.838h15.554V195.122h5.338l10.258,17.806h16.68Z" transform="translate(-132.913 207.371)" fill="#245477"></path><path d="M407.637,183.654h-7.173V169.1h7.173c5.338,0,8.132,2.585,8.132,7.256s-2.794,7.3-8.132,7.3m13.177,9.258a17.223,17.223,0,0,0,10.634-16.68c0-11.593-8.34-20.142-23.019-20.142H384.91v56.838h15.555V195.122h5.3l10.258,17.806h16.889Z" transform="translate(-55.848 207.371)" fill="#245477"></path><rect width="15.554" height="56.838" transform="translate(432.981 363.586)" fill="#245477"></rect><path d="M139.964,103.854h21.142v-12.8H139.964V79.542h23.978V66.74H124.41v56.838h15.554Z" transform="translate(394.391 211.86)" fill="#245477"></path><path d="M457.674,201.039a15.93,15.93,0,1,1,15.3-15.971,14.846,14.846,0,0,1-15.3,15.971m0-45.079c-16.68,0-31.234,11.968-31.234,29.191s14.47,29.191,31.234,29.191,31.234-12.01,31.234-29.191-14.47-29.191-31.234-29.191" transform="translate(75.806 206.959)" fill="#245477"></path><path d="M481.584,180.617a15.93,15.93,0,1,1,15.3-15.971,14.846,14.846,0,0,1-15.3,15.971m0-45.037c-16.68,0-31.234,11.926-31.234,29.191s14.47,29.191,31.234,29.191,31.234-12.052,31.234-29.191-14.47-29.191-31.234-29.191" transform="translate(151.603 142.353)" fill="#245477"></path><path d="M491.554,148.679h7.173c5.3,0,8.132,2.585,8.132,7.3s-2.836,7.256-8.132,7.256h-7.173Zm0,26.188h5.3l10.258,17.806h16.68l-12.052-20.142a17.264,17.264,0,0,0,10.592-16.68c0-11.635-8.34-20.142-23.019-20.142H476v56.838h15.6Z" transform="translate(232.916 142.765)" fill="#245477"></path><path d="M476.179,183.559h-7.173V169.006h7.173c5.3,0,8.132,2.585,8.132,7.256s-2.836,7.3-8.132,7.3m23.811-7.3c0-11.593-8.34-20.142-23.019-20.142H453.41v56.838h15.6V195.152h5.3l10.258,17.806h16.889l-12.093-20.142a17.223,17.223,0,0,0,10.634-16.68" transform="translate(161.304 207.466)" fill="#245477"></path><path d="M506.094,179.1l-7.715-2.5c-2.794-.917-4.17-2-4.17-4.17s1.877-3.92,5.63-3.92a13.3,13.3,0,0,1,10.092,4.17l8.924-9.133A25.02,25.02,0,0,0,499,156.036c-10.342,0-19.85,5.755-19.85,16.972,0,9.341,5.963,14.387,14.47,17.139l6.839,2.252c3.837,1.251,5.713,2.419,5.713,4.837,0,3.169-2.752,4.5-7.339,4.5a14.888,14.888,0,0,1-12.177-6.172l-11.3,8.34A29.191,29.191,0,0,0,499.5,214.417c15.388,0,22.06-7.506,22.06-17.973,0-8.007-3.92-13.469-15.555-17.223" transform="translate(230.887 206.967)" fill="#245477"></path><path d="M471.466,175.653l-15.93-6.505-1.752-.625c-11.551-4.17-17.556-6.505-17.556-11.551,0-7.631,9.3-8.34,13.344-8.34A54.794,54.794,0,0,1,480.6,160.015l2.794,1.918,12.01-27.147-1.5-1.376c-11.426-10.467-25.021-15.263-42.91-15.179-28.649,0-50.041,17.723-50.041,40.825,0,16.972,10.592,30.108,29.4,36.947l16.931,6.964,3.211,1.251c10.675,4.17,15.054,6.213,15.054,12.51a5.88,5.88,0,0,1-1.752,4.17,19.474,19.474,0,0,1-13.553,3.795h0a71.559,71.559,0,0,1-36.155-12.844l-2.377-1.918L395.32,234.952l1.877,1.626a78.605,78.605,0,0,0,51,18.307h.459c36.363-.25,52.793-22.143,52.668-42.41,0-17.681-9.8-29.733-29.649-36.864" transform="translate(-22.847 87.351)" fill="#245477"></path></g></svg>